Coordinates
version=1
nRows=26
nColumns=24
inDegrees=yes

Units are S.I. units (second, meters, Newtons, ...)
Angles are in degrees.

endheader
time	pelvis_tilt	pelvis_list	pelvis_rotation	pelvis_tx	pelvis_ty	pelvis_tz	hip_flexion_r	hip_adduction_r	hip_rotation_r	knee_angle_r	ankle_angle_r	subtalar_angle_r	mtp_angle_r	hip_flexion_l	hip_adduction_l	hip_rotation_l	knee_angle_l	ankle_angle_l	subtalar_angle_l	mtp_angle_l	lumbar_extension	lumbar_bending	lumbar_rotation
      2.90500000	    -10.70554660	     12.84121549	     -1.56818423	     -1.64406009	     -0.05933740	      0.70380081	     15.79835127	    -17.15886552	      2.42029879	    -62.47523735	    -32.58566121	     -1.30858959	     52.72846486	     36.77226220	     14.53617403	      0.12132516	    -35.99890015	      8.48384830	     -5.60419911	    -12.16912591	      8.73747680	    -15.13703141	      2.74227141
      2.91000000	    -10.59788279	     12.97317052	     -1.44662930	     -1.63637062	     -0.05793614	      0.70329802	     16.81557205	    -17.39310735	      2.28462372	    -63.99802583	    -32.08143905	     -2.85171107	     51.26488996	     35.93879026	     14.83102179	      0.26406584	    -35.65675006	      8.93327553	     -5.54769127	    -12.19887467	      8.76730992	    -15.32719048	      2.40510190
      2.91500000	    -10.48016537	     13.10095096	     -1.32769422	     -1.62866086	     -0.05642290	      0.70279814	     17.80965901	    -17.62224022	      2.17380449	    -65.43243988	    -31.41882627	     -4.06092956	     49.77731206	     35.05159273	     15.12977213	      0.46657570	    -35.24444378	      9.37441675	     -5.53330671	    -12.40352918	      8.79619917	    -15.50857388	      2.09179943
      2.92000000	    -10.35575205	     13.22507433	     -1.21304712	     -1.62093646	     -0.05478351	      0.70223726	     18.77722798	    -17.85103195	      2.09022288	    -66.72425898	    -30.80645163	     -5.11267233	     48.90847092	     34.11600882	     15.44475847	      0.75421504	    -34.75851849	      9.70174260	     -5.62650780	    -12.59011106	      8.82664484	    -15.67157677	      1.82791174
      2.92500000	    -10.20804948	     13.23430487	     -1.08935646	     -1.61321876	     -0.05304885	      0.70179169	     19.67581056	    -17.92642919	      1.99646687	    -67.92949147	    -30.02372713	     -5.79482307	     47.65446948	     33.14084179	     15.61967996	      1.02332057	    -34.29807753	     10.22107867	     -5.45692919	    -12.88630278	      8.82552065	    -15.72758189	      1.46463522
      2.93000000	    -10.07279729	     13.27542560	     -0.97386772	     -1.60552198	     -0.05124583	      0.70123688	     20.57996277	    -18.04123135	      1.94672070	    -68.98801111	    -29.40173187	     -6.43155514	     47.33396924	     32.14066736	     15.85318690	      1.38951740	    -33.74574925	     10.50508669	     -5.50130904	    -12.96090732	      8.83938782	    -15.79790161	      1.16615582
      2.93500000	     -9.91639427	     13.25254821	     -0.85052702	     -1.59784766	     -0.04936263	      0.70072483	     21.42486413	    -18.06890450	      1.88775774	    -69.94343008	    -28.75742353	     -6.87051060	     46.95206943	     31.09757941	     16.01699167	      1.78624942	    -33.17973333	     10.80049272	     -5.46610512	    -12.94565923	      8.82220843	    -15.80508591	      0.82970209
      2.94000000	     -9.80110154	     13.21539672	     -0.74410910	     -1.59017596	     -0.04749663	      0.70026111	     22.30126614	    -18.05029568	      1.88431391	    -70.79183572	    -28.15271774	     -7.17561825	     46.93597213	     30.08724370	     16.13871412	      2.15687289	    -32.58852908	     11.06915836	     -5.40135290	    -12.85631837	      8.85899611	    -15.79222669	      0.51634159
      2.94500000	     -9.66453619	     13.15954677	     -0.61168279	     -1.58253139	     -0.04557124	      0.69972913	     23.11757909	    -18.01614540	      1.85145037	    -71.54083467	    -27.55600090	     -7.37879445	     46.89278276	     29.02590839	     16.27096055	      2.62547454	    -31.94822384	     11.23840360	     -5.49418458	    -12.78412713	      8.85634671	    -15.75807578	      0.18437955
      2.95000000	     -9.52748255	     13.07083347	     -0.48826869	     -1.57492426	     -0.04362204	      0.69920260	     23.90895847	    -17.92715439	      1.83326343	    -72.19249068	    -26.95384313	     -7.46675757	     46.88265328	     27.95202495	     16.36100915	      3.11249616	    -31.27905588	     11.36509753	     -5.65873178	    -12.74518040	      8.84776527	    -15.68309226	     -0.13158662
      2.95500000	     -9.40434797	     12.96962762	     -0.36709701	     -1.56734918	     -0.04168878	      0.69869123	     24.69531277	    -17.80776123	      1.82694632	    -72.75642022	    -26.36044884	     -7.50001149	     46.89661369	     26.88562663	     16.42465568	      3.59685446	    -30.58576537	     11.47073040	     -5.86617213	    -12.77807503	      8.84944035	    -15.59150316	     -0.44513556
      2.96000000	     -9.29025768	     12.85481898	     -0.24384646	     -1.55980954	     -0.03977303	      0.69817413	     25.46872931	    -17.66348081	      1.82016309	    -73.23529375	    -25.76944853	     -7.50188942	     46.89321427	     25.82243584	     16.46638480	      4.09208105	    -29.87360896	     11.55973292	     -6.11271383	    -12.90534572	      8.85324192	    -15.48267025	     -0.75962490
      2.96500000	     -9.18256580	     12.72964430	     -0.11679520	     -1.55230746	     -0.03788496	      0.69764132	     26.22729785	    -17.50306248	      1.80547807	    -73.63417065	    -25.17970849	     -7.49706517	     46.83299752	     24.76100723	     16.49090002	      4.60106967	    -29.14820360	     11.64479090	     -6.37373764	    -13.12673969	      8.85510618	    -15.35907923	     -1.07912177
      2.97000000	     -9.08394956	     12.59157443	      0.01171546	     -1.54484396	     -0.03603314	      0.69709890	     26.97490588	    -17.32438838	      1.77846881	    -73.95521129	    -24.60010450	     -7.51940420	     46.68785800	     23.70652668	     16.49327690	      5.12140718	    -28.41500996	     11.73307212	     -6.62155266	    -13.41413258	      8.85851184	    -15.21791626	     -1.39593118
      2.97500000	     -8.99107023	     12.44397842	      0.14122487	     -1.53742804	     -0.03422716	      0.69654471	     27.71081392	    -17.13312763	      1.73727719	    -74.20404683	    -24.03471708	     -7.59283773	     46.43172055	     22.65906726	     16.47624360	      5.64940347	    -27.68059843	     11.82431842	     -6.83963464	    -13.73824842	      8.85768665	    -15.06195981	     -1.72185791
      2.98000000	     -8.91067212	     12.28395762	      0.26433389	     -1.53006082	     -0.03248222	      0.69599205	     28.44531538	    -16.92517487	      1.68209505	    -74.38107211	    -23.50060997	     -7.74322191	     46.07860364	     21.62999718	     16.43063114	      6.16399952	    -26.94683369	     11.91612184	     -7.01727814	    -14.04129143	      8.86315527	    -14.88681458	     -2.03848210
      2.98500000	     -8.80377301	     12.14599348	      0.40642059	     -1.52278819	     -0.03082456	      0.69542344	     29.13768089	    -16.75805280	      1.58423953	    -74.51553475	    -22.92274351	     -7.97926529	     45.42984738	     20.58528607	     16.40404403	      6.67183147	    -26.22818933	     12.05933702	     -7.15052039	    -14.43719991	      8.81218516	    -14.74020480	     -2.40954172
      2.99000000	     -8.74465699	     11.97030344	      0.52804310	     -1.51548340	     -0.02920915	      0.69486957	     29.85794961	    -16.53461149	      1.49115849	    -74.55228660	    -22.46191733	     -8.29978358	     44.82097697	     19.58488615	     16.31536014	      7.16148711	    -25.48653770	     12.15286837	     -7.28304004	    -14.75488814	      8.82870740	    -14.54437705	     -2.71126639
      2.99500000	     -8.67907842	     11.78874644	      0.64357368	     -1.50827425	     -0.02767567	      0.69432423	     30.56122226	    -16.30149500	      1.39051422	    -74.52583917	    -22.04344337	     -8.70987476	     44.15736681	     18.59452341	     16.20736035	      7.62580923	    -24.75216615	     12.23308585	     -7.43343313	    -15.03749599	      8.81903354	    -14.33786086	     -3.03014671
      3.00000000	     -8.60932354	     11.60344894	      0.75815296	     -1.50110065	     -0.02621604	      0.69376303	     31.24313304	    -16.07413200	      1.26125470	    -74.43544076	    -21.67822209	     -9.22365878	     43.36809799	     17.60966430	     16.08647707	      8.07809513	    -24.02141578	     12.30637825	     -7.60591276	    -15.35532193	      8.79450366	    -14.11736530	     -3.35330693
      3.00500000	     -8.54189734	     11.40917182	      0.86437839	     -1.49399393	     -0.02485115	      0.69320928	     31.91596977	    -15.83169772	      1.12770129	    -74.28231145	    -21.37248974	     -9.83250271	     42.51382448	     16.64503925	     15.94584762	      8.50977779	    -23.30288641	     12.37700860	     -7.81105682	    -15.71599962	      8.76017789	    -13.88497580	     -3.68030515
      3.01000000	     -8.46953006	     11.21301421	      0.97252848	     -1.48691092	     -0.02357261	      0.69265815	     32.56542037	    -15.59310819	      0.97258750	    -74.07034702	    -21.11341359	    -10.51972476	     41.51435224	     15.68637629	     15.79568077	      8.93819460	    -22.59741144	     12.46897770	     -8.01267473	    -16.15802976	      8.71126308	    -13.64992843	     -3.99735086
      3.01500000	     -8.39828280	     11.01072277	      1.07330234	     -1.47986808	     -0.02239350	      0.69211082	     33.20276998	    -15.34628850	      0.81042372	    -73.80058362	    -20.90053633	    -11.26718940	     40.40523881	     14.74503861	     15.63349717	      9.37305634	    -21.91195526	     12.57343329	     -8.22480020	    -16.66575760	      8.65551445	    -13.40276572	     -4.30757428
      3.02000000	     -8.32091660	     10.78391525	      1.14049678	     -1.47287707	     -0.02134134	      0.69161791	     33.82821556	    -15.04446991	      0.67811930	    -73.50894327	    -20.55316177	    -11.81216780	     38.70743920	     13.83507337	     15.43154220	      9.76835948	    -21.29570634	     12.90622035	     -8.31744815	    -17.62952629	      8.58529791	    -13.11816873	     -4.60392808
      3.02500000	     -8.24010012	     10.56842893	      1.23570867	     -1.46592174	     -0.02035918	      0.69105458	     34.41953081	    -14.78672882	      0.49387378	    -73.12024325	    -20.40320095	    -12.65501635	     37.43243436	     12.91640909	     15.25701240	     10.27185779	    -20.66844374	     13.09543268	     -8.53413832	    -18.39506405	      8.49648062	    -12.84564308	     -4.92092516
      3.03000000	     -8.20158878	     10.38872254	      1.31457554	     -1.45906102	     -0.01956389	      0.69048330	     35.06259419	    -14.55458114	      0.35164323	    -72.66840436	    -20.38028345	    -13.65622559	     36.52990143	     12.06415915	     15.12048255	     10.78430705	    -20.04411741	     13.07460759	     -8.89855809	    -18.70424601	      8.44150748	    -12.60469567	     -5.22179380
